<svg width="184" height="32" viewBox="0 0 184 32" fill="none" xmlns="http://www.w3.org/2000/svg">
<path d="M26.4 0.400011H28.36L27.56 10.52H25.96C25.4 8.06668 24.3067 6.13334 22.68 4.72001C21.08 3.30668 19.1333 2.60001 16.84 2.60001C15.2667 2.60001 13.8667 2.92001 12.64 3.56001C11.4133 4.17334 10.3733 5.06668 9.52 6.24001C8.69333 7.38668 8.05333 8.80001 7.6 10.48C7.17333 12.1333 6.96 14 6.96 16.08C6.96 20.2133 7.8 23.4 9.48 25.64C11.1867 27.8533 13.6933 28.96 17 28.96C19.6667 28.96 21.8667 28.24 23.6 26.8C25.36 25.36 26.6133 23.2133 27.36 20.36H29.12V31.2H27.24L26.68 28.04C23.7467 30.4133 20.1867 31.6 16 31.6C13.5733 31.6 11.3733 31.24 9.4 30.52C7.42666 29.8 5.74666 28.7867 4.36 27.48C2.97333 26.1467 1.89333 24.5333 1.12 22.64C0.373329 20.7467 -4.79817e-06 18.64 -4.79817e-06 16.32C-4.79817e-06 13.8933 0.399995 11.68 1.2 9.68001C2 7.68001 3.12 5.96001 4.56 4.52001C6.02666 3.08001 7.76 1.97334 9.76 1.20001C11.7867 0.400011 14.0267 1.09673e-05 16.48 1.09673e-05C18.1067 1.09673e-05 19.6267 0.226678 21.04 0.680012C22.4533 1.13334 23.9867 1.86668 25.64 2.88001L26.4 0.400011ZM54.2897 23.72L63.5297 0.400011H75.2097V2.00001C74.3297 2.00001 73.6097 2.09334 73.0497 2.28001C72.5164 2.44001 72.103 2.74668 71.8097 3.20001C71.5164 3.65334 71.3164 4.28001 71.2097 5.08001C71.1297 5.85334 71.0897 6.84001 71.0897 8.04001V23.56C71.0897 24.8933 71.143 25.9467 71.2497 26.72C71.3564 27.4933 71.5697 28.0933 71.8897 28.52C72.2097 28.9467 72.663 29.2267 73.2497 29.36C73.863 29.4933 74.663 29.5733 75.6497 29.6V31.2H60.6097V29.6C61.5964 29.5733 62.383 29.4933 62.9697 29.36C63.583 29.2 64.0497 28.92 64.3697 28.52C64.7164 28.12 64.943 27.56 65.0497 26.84C65.1564 26.0933 65.2097 25.0933 65.2097 23.84V5.12001H65.0097L54.2497 31.6H51.2897L40.1697 5.12001H40.0097V23.56C40.0097 24.8933 40.063 25.9467 40.1697 26.72C40.2763 27.4933 40.4897 28.0933 40.8097 28.52C41.1297 28.9467 41.583 29.2267 42.1697 29.36C42.783 29.4933 43.583 29.5733 44.5697 29.6V31.2H32.2497V29.6C33.2363 29.5733 34.0363 29.4933 34.6497 29.36C35.263 29.2 35.7297 28.92 36.0497 28.52C36.3963 28.12 36.623 27.56 36.7297 26.84C36.8363 26.0933 36.8897 25.0933 36.8897 23.84V7.76001C36.8897 6.64001 36.8363 5.70668 36.7297 4.96001C36.623 4.21334 36.423 3.62668 36.1297 3.20001C35.8363 2.74668 35.4097 2.44001 34.8497 2.28001C34.3163 2.09334 33.5963 2.00001 32.6897 2.00001V0.400011H44.8097L54.1297 23.72H54.2897ZM104.72 0.400011H106.68L105.88 10.52H104.28C103.72 8.06668 102.627 6.13334 101 4.72001C99.4003 3.30668 97.4536 2.60001 95.1603 2.60001C93.587 2.60001 92.187 2.92001 90.9603 3.56001C89.7336 4.17334 88.6936 5.06668 87.8403 6.24001C87.0136 7.38668 86.3736 8.80001 85.9203 10.48C85.4936 12.1333 85.2803 14 85.2803 16.08C85.2803 20.2133 86.1203 23.4 87.8003 25.64C89.507 27.8533 92.0136 28.96 95.3203 28.96C97.987 28.96 100.187 28.24 101.92 26.8C103.68 25.36 104.934 23.2133 105.68 20.36H107.44V31.2H105.56L105 28.04C102.067 30.4133 98.507 31.6 94.3203 31.6C91.8936 31.6 89.6936 31.24 87.7203 30.52C85.747 29.8 84.067 28.7867 82.6803 27.48C81.2936 26.1467 80.2136 24.5333 79.4403 22.64C78.6936 20.7467 78.3203 18.64 78.3203 16.32C78.3203 13.8933 78.7203 11.68 79.5203 9.68001C80.3203 7.68001 81.4403 5.96001 82.8803 4.52001C84.347 3.08001 86.0803 1.97334 88.0803 1.20001C90.107 0.400011 92.347 1.09673e-05 94.8003 1.09673e-05C96.427 1.09673e-05 97.947 0.226678 99.3603 0.680012C100.774 1.13334 102.307 1.86668 103.96 2.88001L104.72 0.400011ZM123.13 19.8C120.89 20.8133 119.197 21.76 118.05 22.64C116.93 23.4933 116.37 24.3867 116.37 25.32C116.37 26.0933 116.583 26.7067 117.01 27.16C117.437 27.6133 117.97 27.84 118.61 27.84C119.25 27.84 119.85 27.7333 120.41 27.52C120.97 27.28 121.45 26.9733 121.85 26.6C122.25 26.2267 122.557 25.7867 122.77 25.28C123.01 24.7467 123.13 24.1867 123.13 23.6V19.8ZM123.13 17.68V16C123.13 14.4533 122.85 13.3333 122.29 12.64C121.757 11.92 120.917 11.56 119.77 11.56C118.997 11.56 118.41 11.7733 118.01 12.2C117.61 12.6 117.237 13.28 116.89 14.24C116.65 14.9067 116.303 15.4267 115.85 15.8C115.423 16.1733 114.823 16.36 114.05 16.36C113.303 16.36 112.73 16.1333 112.33 15.68C111.93 15.2267 111.73 14.5867 111.73 13.76C111.73 12.48 112.423 11.4667 113.81 10.72C115.223 9.97334 117.343 9.60001 120.17 9.60001C123.157 9.60001 125.29 10.1467 126.57 11.24C127.85 12.3067 128.49 14.1067 128.49 16.64V25.4C128.49 27.6667 128.943 28.8 129.85 28.8C130.357 28.8 130.823 28.6267 131.25 28.28L131.85 29.44C131.477 30.1067 130.89 30.64 130.09 31.04C129.317 31.4133 128.437 31.6 127.45 31.6C126.223 31.6 125.29 31.2267 124.65 30.48C124.01 29.7333 123.69 28.68 123.69 27.32H123.49C122.717 28.7067 121.717 29.76 120.49 30.48C119.263 31.2 117.863 31.56 116.29 31.56C114.61 31.56 113.263 31.0933 112.25 30.16C111.237 29.2 110.73 27.96 110.73 26.44C110.73 25.2667 111.25 24.1733 112.29 23.16C113.33 22.12 115.063 21.1067 117.49 20.12L123.13 17.68ZM142.619 24.68C142.619 25.7733 142.645 26.64 142.699 27.28C142.779 27.8933 142.925 28.3733 143.139 28.72C143.379 29.04 143.725 29.2533 144.179 29.36C144.659 29.4667 145.299 29.5467 146.099 29.6V31.2H133.499V29.6C134.272 29.5467 134.885 29.4667 135.339 29.36C135.819 29.2533 136.179 29.04 136.419 28.72C136.685 28.4 136.859 27.9467 136.939 27.36C137.019 26.7733 137.059 25.9733 137.059 24.96V19.96C137.059 18.3867 137.032 17.12 136.979 16.16C136.925 15.1733 136.859 14.5067 136.779 14.16C136.699 13.8133 136.592 13.5333 136.459 13.32C136.325 13.08 136.125 12.9067 135.859 12.8C135.592 12.6667 135.259 12.5867 134.859 12.56C134.459 12.5067 133.952 12.48 133.339 12.48V11.12L141.059 9.60001L141.579 13.12H141.739C142.619 12 143.659 11.1333 144.859 10.52C146.059 9.90668 147.379 9.60001 148.819 9.60001C150.525 9.60001 151.899 9.84001 152.939 10.32C154.005 10.7733 154.952 11.5467 155.779 12.64C156.232 13.2533 156.632 14.0533 156.979 15.04C157.325 16 157.499 17.3333 157.499 19.04V24.68C157.499 25.7733 157.525 26.64 157.579 27.28C157.659 27.8933 157.805 28.3733 158.019 28.72C158.259 29.04 158.605 29.2533 159.059 29.36C159.512 29.4667 160.125 29.5467 160.899 29.6V31.2H148.379V29.6C149.179 29.5733 149.805 29.5067 150.259 29.4C150.739 29.2667 151.099 29.04 151.339 28.72C151.579 28.4 151.739 27.9467 151.819 27.36C151.899 26.7467 151.939 25.9467 151.939 24.96V19.52C151.939 18.16 151.859 17.0133 151.699 16.08C151.539 15.1467 151.272 14.4 150.899 13.84C150.552 13.2533 150.085 12.84 149.499 12.6C148.912 12.3333 148.179 12.2 147.299 12.2C146.445 12.2 145.712 12.44 145.099 12.92C144.485 13.4 143.952 14.0667 143.499 14.92C143.259 15.4 143.045 16.0267 142.859 16.8C142.699 17.5467 142.619 18.3333 142.619 19.16V24.68ZM175.161 19.8C172.921 20.8133 171.228 21.76 170.081 22.64C168.961 23.4933 168.401 24.3867 168.401 25.32C168.401 26.0933 168.615 26.7067 169.041 27.16C169.468 27.6133 170.001 27.84 170.641 27.84C171.281 27.84 171.881 27.7333 172.441 27.52C173.001 27.28 173.481 26.9733 173.881 26.6C174.281 26.2267 174.588 25.7867 174.801 25.28C175.041 24.7467 175.161 24.1867 175.161 23.6V19.8ZM175.161 17.68V16C175.161 14.4533 174.881 13.3333 174.321 12.64C173.788 11.92 172.948 11.56 171.801 11.56C171.028 11.56 170.441 11.7733 170.041 12.2C169.641 12.6 169.268 13.28 168.921 14.24C168.681 14.9067 168.335 15.4267 167.881 15.8C167.455 16.1733 166.855 16.36 166.081 16.36C165.335 16.36 164.761 16.1333 164.361 15.68C163.961 15.2267 163.761 14.5867 163.761 13.76C163.761 12.48 164.455 11.4667 165.841 10.72C167.255 9.97334 169.375 9.60001 172.201 9.60001C175.188 9.60001 177.321 10.1467 178.601 11.24C179.881 12.3067 180.521 14.1067 180.521 16.64V25.4C180.521 27.6667 180.975 28.8 181.881 28.8C182.388 28.8 182.855 28.6267 183.281 28.28L183.881 29.44C183.508 30.1067 182.921 30.64 182.121 31.04C181.348 31.4133 180.468 31.6 179.481 31.6C178.255 31.6 177.321 31.2267 176.681 30.48C176.041 29.7333 175.721 28.68 175.721 27.32H175.521C174.748 28.7067 173.748 29.76 172.521 30.48C171.295 31.2 169.895 31.56 168.321 31.56C166.641 31.56 165.295 31.0933 164.281 30.16C163.268 29.2 162.761 27.96 162.761 26.44C162.761 25.2667 163.281 24.1733 164.321 23.16C165.361 22.12 167.095 21.1067 169.521 20.12L175.161 17.68Z" fill="#274B9C"/>
</svg>
